<svg width="23" height="21" viewBox="0 0 23 21" fill="none" xmlns="http://www.w3.org/2000/svg">
<path fill-rule="evenodd" clip-rule="evenodd" d="M7.49836 0.708435H15.74C19.5325 0.708435 22.6079 3.4917 22.6079 6.92385V14.3824C22.6079 17.8145 19.5325 20.5978 15.74 20.5978H7.49836C3.70586 20.5978 0.630371 17.8145 0.630371 14.3824V6.92385C0.630371 3.4917 3.70586 0.708435 7.49836 0.708435ZM15.74 18.7332C18.391 18.7332 20.5475 16.7815 20.5475 14.3824V6.9239C20.5475 4.52476 18.391 2.57312 15.74 2.57312H7.49836C4.84732 2.57312 2.69077 4.52476 2.69077 6.9239V14.3824C2.69077 16.7815 4.84732 18.7332 7.49836 18.7332H15.74Z" fill="white"/>
<path fill-rule="evenodd" clip-rule="evenodd" d="M6.12476 10.6532C6.12476 7.9072 8.58487 5.68085 11.6192 5.68085C14.6534 5.68085 17.1136 7.9072 17.1136 10.6532C17.1136 13.3991 14.6534 15.6255 11.6192 15.6255C8.58487 15.6255 6.12476 13.3991 6.12476 10.6532ZM8.18515 10.6531C8.18515 12.3661 9.72633 13.7609 11.6192 13.7609C13.512 13.7609 15.0532 12.3661 15.0532 10.6531C15.0532 8.93892 13.512 7.54541 11.6192 7.54541C9.72633 7.54541 8.18515 8.93892 8.18515 10.6531Z" fill="white"/>
<ellipse cx="17.5256" cy="5.30789" rx="0.732132" ry="0.662567" fill="white"/>
</svg>
